# xmcd CD database file
#
# Track frame offsets:
#	150
#	20097
#	76096
#	113639
#	141687
#	157569
#	184203
#	204363
#	215933
#	232820
#	303272
#	316651
#	328620
#
# Disc length: 4600 seconds
#
# Revision: 0
# Processed by: cddbd v1.5.2PL0 Copyright (c) Steve Scherf et al.
# Submitted via: CDex 1.51
#
DISCID=a711f60d
DTITLE=Musik in Deutschland 1950-2000 - Free Jazz West
DYEAR=2008
DGENRE=Jazz
TTITLE0=Manfred Schoof Quintett - Axiom
TTITLE1=Peter Brötzmann Trio - Usable Past
TTITLE2=Gunter Hampel Group - We Move
TTITLE3=Rüdiger Carl Inc. - AEIOU
TTITLE4=Hans Reichel Solo - Bonobo II
TTITLE5=Heiner Goebbels - Alfred Harth - Vorwärts
TTITLE6=Georg Graewe Quintett - Pink Pong
TTITLE7=Martin Theurer Solo - Witten Blues
TTITLE8=Achim Knspel - Willi Kellers - SAM, where are you?
TTITLE9=Schlippenbach Trio - Ciclone
TTITLE10=Rüdiger Carl Solo - AUM
TTITLE11=Peter Kowald Solo - Ima Samu Dessu
TTITLE12=Peter Brötzmann - Manfred Schoof - Jay Oliver - Willi Kellers - Trollymog
EXTD=YEAR: 2008
EXTT0=
EXTT1=
EXTT2=
EXTT3=
EXTT4=
EXTT5=
EXTT6=
EXTT7=
EXTT8=
EXTT9=
EXTT10=
EXTT11=
EXTT12=
PLAYORDER=
